<mxfile host="app.diagrams.net" modified="2020-08-31T11:11:11.261Z" agent="5.0 (Windows NT 10.0; Win64; x64) AppleWebKit/537.36 (KHTML, like Gecko) Chrome/84.0.4147.135 Safari/537.36" etag="X1hwobpsPJYP1XMf0DrA" version="13.6.5" type="github">
  <diagram id="C5RBs43oDa-KdzZeNtuy" name="Page-1">
    <mxGraphModel dx="868" dy="482" grid="1" gridSize="10" guides="1" tooltips="1" connect="1" arrows="1" fold="1" page="1" pageScale="1" pageWidth="827" pageHeight="1169" math="0" shadow="0">
      <root>
        <mxCell id="WIyWlLk6GJQsqaUBKTNV-0" />
        <mxCell id="WIyWlLk6GJQsqaUBKTNV-1" parent="WIyWlLk6GJQsqaUBKTNV-0" />
        <mxCell id="G8VdrhZgk0GMFVfEzTXd-2" value="Collect and gather required data by respective focal person" style="shape=ext;double=1;rounded=1;whiteSpace=wrap;html=1;" vertex="1" parent="WIyWlLk6GJQsqaUBKTNV-1">
          <mxGeometry x="100" y="90" width="120" height="80" as="geometry" />
        </mxCell>
        <mxCell id="G8VdrhZgk0GMFVfEzTXd-3" value="Prepare the data into the provided format&amp;nbsp; in CSV file which will be uploaded to ERPNext" style="shape=ext;double=1;rounded=1;whiteSpace=wrap;html=1;" vertex="1" parent="WIyWlLk6GJQsqaUBKTNV-1">
          <mxGeometry x="280" y="90" width="190" height="80" as="geometry" />
        </mxCell>
        <mxCell id="G8VdrhZgk0GMFVfEzTXd-4" value="Upload the CSV file in ERPNext" style="shape=ext;double=1;rounded=1;whiteSpace=wrap;html=1;" vertex="1" parent="WIyWlLk6GJQsqaUBKTNV-1">
          <mxGeometry x="480" y="90" width="120" height="80" as="geometry" />
        </mxCell>
      </root>
    </mxGraphModel>
  </diagram>
</mxfile>
